<?xml version="1.0" standalone="no"?>
<!DOCTYPE svg PUBLIC "-//W3C//DTD SVG 20010904//EN"
 "http://www.w3.org/TR/2001/REC-SVG-20010904/DTD/svg10.dtd">
<svg version="1.0" xmlns="http://www.w3.org/2000/svg"
 width="690.000000pt" height="690.000000pt" viewBox="0 0 690.000000 690.000000"
 preserveAspectRatio="xMidYMid meet">
<metadata>
Created by potrace 1.14, written by Peter Selinger 2001-2017
</metadata>
<g transform="translate(0.000000,690.000000) scale(0.100000,-0.100000)"
fill="#000000" stroke="none">
<path d="M5319 6896 c-2 -2 -22 -7 -43 -10 -21 -4 -48 -8 -60 -11 -12 -2 -37
-7 -56 -10 -19 -2 -44 -6 -55 -9 -11 -2 -40 -7 -65 -10 -25 -3 -56 -8 -70 -11
-14 -3 -40 -8 -59 -11 -18 -3 -43 -8 -55 -10 -40 -8 -73 -14 -107 -18 -19 -3
-43 -7 -54 -9 -11 -3 -42 -8 -70 -12 -60 -10 -73 -12 -105 -19 -14 -2 -41 -7
-60 -10 -55 -9 -93 -16 -119 -22 -13 -3 -46 -7 -75 -10 -28 -4 -58 -10 -67
-15 -9 -4 -18 -6 -21 -4 -2 3 -38 -2 -79 -9 -41 -8 -90 -17 -109 -20 -19 -3
-46 -8 -60 -10 -84 -15 -155 -28 -183 -31 -18 -3 -57 -9 -87 -15 -30 -6 -71
-13 -90 -16 -19 -3 -46 -7 -60 -10 -14 -3 -41 -7 -60 -10 -19 -2 -46 -7 -60
-10 -14 -3 -41 -7 -60 -10 -19 -3 -57 -9 -85 -15 -27 -5 -66 -12 -85 -15 -19
-3 -57 -9 -85 -14 -27 -5 -63 -12 -80 -14 -16 -3 -43 -7 -60 -10 -16 -3 -46
-8 -65 -11 -19 -3 -42 -8 -50 -10 -8 -2 -37 -6 -64 -10 -27 -3 -52 -8 -56 -10
-3 -2 -26 -6 -51 -9 -24 -3 -53 -8 -64 -10 -11 -2 -40 -7 -65 -11 -25 -4 -52
-9 -60 -10 -8 -1 -35 -6 -60 -10 -25 -4 -54 -9 -65 -11 -34 -7 -68 -13 -115
-19 -24 -4 -47 -8 -50 -10 -3 -1 -27 -6 -55 -9 -27 -4 -57 -9 -65 -11 -8 -2
-31 -6 -50 -9 -19 -3 -59 -10 -89 -16 -29 -5 -57 -8 -61 -5 -5 3 -11 1 -15 -4
-3 -5 -13 -9 -23 -9 -9 0 -30 -2 -47 -5 -38 -8 -93 -17 -125 -22 -14 -2 -36
-7 -50 -10 -14 -3 -45 -7 -69 -10 -24 -2 -51 -7 -60 -9 -9 -3 -29 -7 -46 -10
-51 -8 -219 -37 -245 -42 -14 -2 -41 -7 -60 -10 -51 -8 -82 -13 -106 -18 -12
-2 -39 -7 -60 -10 -22 -4 -64 -11 -94 -16 -30 -5 -68 -12 -85 -14 -44 -7 -87
-15 -115 -21 -14 -3 -41 -8 -60 -10 -19 -3 -44 -7 -55 -9 -11 -3 -23 -5 -28
-5 -6 -1 -4 -1066 6 -3140 l2 -385 55 -25 c30 -14 98 -44 150 -66 l95 -41 -2
-139 c0 -77 -4 -228 -7 -335 -4 -107 -9 -262 -11 -345 -2 -82 -7 -220 -10
-305 -3 -85 -7 -179 -8 -208 -1 -33 2 -52 9 -52 7 0 42 9 79 21 38 11 75 22
84 24 9 2 48 13 86 25 39 12 94 28 123 36 30 8 63 19 75 26 12 6 22 10 22 9 0
-4 55 9 108 26 26 8 56 16 65 18 9 2 18 4 20 5 1 2 5 3 10 4 22 6 98 27 107
30 6 2 13 4 17 5 4 1 26 8 49 16 23 9 51 17 63 19 12 3 75 21 141 41 66 20
151 45 188 56 37 12 75 22 85 24 9 2 17 4 17 5 0 1 7 3 15 5 8 2 69 20 135 39
66 20 127 38 135 40 8 2 22 6 30 9 26 10 224 67 253 73 16 3 43 -1 60 -9 18
-9 82 -36 142 -62 61 -26 126 -54 145 -63 19 -9 37 -16 40 -17 3 0 27 -11 54
-23 27 -12 50 -22 52 -22 2 0 27 -11 56 -24 29 -13 103 -45 163 -71 107 -45
148 -63 230 -100 22 -10 42 -19 45 -20 3 -1 21 -8 40 -17 19 -8 64 -27 100
-42 36 -15 83 -35 105 -46 22 -10 45 -19 50 -21 6 -1 66 -28 135 -59 69 -31
128 -57 132 -58 9 -3 70 -29 208 -88 58 -25 114 -50 125 -54 11 -5 45 -19 75
-33 30 -13 69 -30 85 -37 17 -7 82 -35 145 -62 163 -71 164 -71 173 -70 4 1 7
-3 7 -10 0 -6 3 -8 7 -5 3 4 11 3 17 -2 6 -5 56 -27 111 -51 55 -23 114 -48
130 -55 55 -24 180 -78 213 -91 17 -8 47 -20 65 -28 17 -8 106 -47 197 -86 91
-39 174 -75 185 -80 126 -57 225 -97 229 -92 3 3 6 0 6 -6 0 -7 7 -12 15 -12
8 0 30 -9 50 -20 19 -11 38 -20 43 -21 11 -2 54 -19 64 -25 5 -3 6 8 3 24 -2
16 -7 44 -9 63 -8 57 -16 112 -22 149 -3 19 -8 44 -9 55 -3 18 -23 149 -30
200 -2 11 -6 38 -9 60 -3 22 -8 54 -10 70 -9 58 -27 170 -32 200 -3 17 -7 44
-9 60 -6 53 -15 119 -20 145 -3 14 -7 43 -10 65 -3 22 -7 51 -10 65 -3 14 -8
45 -10 70 -3 25 -8 52 -10 60 -2 8 -7 38 -10 65 -4 28 -13 91 -21 140 -9 50
-17 104 -19 120 -7 53 -15 109 -20 135 -3 14 -7 41 -10 60 -9 72 -15 110 -30
201 -8 52 -17 114 -20 139 -3 25 -7 56 -10 70 -3 14 -7 43 -10 65 -3 22 -7 51
-10 65 -9 46 -27 169 -29 195 -1 20 3 22 184 72 57 15 83 30 75 42 -2 4 -6 29
-10 57 -3 27 -7 63 -10 79 -3 17 -7 47 -10 68 -3 20 -7 54 -10 75 -3 20 -7 51
-10 67 -2 17 -7 53 -10 80 -3 28 -8 61 -11 75 -3 14 -7 41 -9 60 -2 19 -6 49
-9 65 -4 28 -15 110 -22 165 -1 14 -5 36 -8 50 -2 14 -8 52 -12 85 -9 78 -10
84 -17 125 -3 19 -9 62 -12 95 -4 33 -8 67 -10 75 -5 22 -18 121 -19 148 -1
12 -3 22 -6 22 -3 0 -5 10 -6 23 0 25 -7 76 -34 268 -11 76 -22 160 -25 186
-3 26 -8 62 -11 78 -3 17 -7 44 -9 60 -5 46 -14 108 -19 131 -2 12 -7 45 -11
75 -3 30 -9 72 -12 94 -3 22 -7 49 -9 60 -1 11 -3 20 -4 20 0 0 -3 21 -5 46
-2 25 -6 59 -9 75 -3 16 -8 52 -11 79 -4 28 -8 57 -10 65 -4 17 -13 73 -20
135 -2 22 -7 56 -9 75 -3 19 -8 55 -11 80 -3 25 -7 56 -10 70 -2 14 -7 45 -10
70 -6 55 -15 102 -20 109 -2 3 -71 6 -155 5 -99 0 -153 4 -156 10 -1 6 -5 27
-8 46 -3 19 -8 46 -10 60 -3 14 -7 45 -10 70 -3 25 -8 56 -11 70 -3 14 -7 45
-10 70 -3 25 -8 57 -11 72 -3 15 -7 39 -9 55 -2 15 -6 42 -9 58 -2 17 -8 55
-11 85 -4 30 -9 58 -11 62 -3 4 -7 29 -9 55 -3 26 -7 60 -9 75 -5 31 -17 104
-21 128 -2 8 -6 37 -9 64 -4 27 -9 53 -12 58 -5 8 -28 11 -35 4z"/>
</g>
</svg>
