<svg width="24" height="24" viewBox="0 0 24 24" fill="none" xmlns="http://www.w3.org/2000/svg">
<path fill-rule="evenodd" clip-rule="evenodd" d="M6.57355 22.9019C5.79781 22.2959 5.70248 21.2128 6.36063 20.4826L14.9992 10.8987C15.6574 10.1685 16.8198 10.0678 17.5955 10.6738C18.3713 11.2798 18.4666 12.3629 17.8084 13.0931L9.16983 22.677C8.51168 23.4071 7.34929 23.5078 6.57355 22.9019Z" fill="#0A0A0A"/>
<path fill-rule="evenodd" clip-rule="evenodd" d="M17.4265 13.3257C18.2022 12.7197 18.2975 11.6366 17.6394 10.9064L9.00076 1.32253C8.34261 0.592363 7.18021 0.491669 6.40447 1.09762C5.62873 1.70358 5.53341 2.78672 6.19156 3.51689L14.8302 13.1008C15.4883 13.831 16.6507 13.9317 17.4265 13.3257Z" fill="#0A0A0A"/>
</svg>
