<svg width="24" height="24" viewBox="0 0 24 24" fill="none" xmlns="http://www.w3.org/2000/svg">
<path fill-rule="evenodd" clip-rule="evenodd" d="M17.4265 1.09813C18.2022 1.70409 18.2975 2.78723 17.6394 3.5174L9.00076 13.1013C8.34261 13.8315 7.18021 13.9322 6.40447 13.3262C5.62873 12.7202 5.53341 11.6371 6.19156 10.9069L14.8302 1.32304C15.4883 0.59287 16.6507 0.492176 17.4265 1.09813Z" fill="#0A0A0A"/>
<path fill-rule="evenodd" clip-rule="evenodd" d="M6.57355 10.6763C5.79781 11.2822 5.70248 12.3654 6.36063 13.0955L14.9992 22.6794C15.6574 23.4096 16.8198 23.5103 17.5955 22.9043C18.3713 22.2984 18.4666 21.2152 17.8084 20.4851L9.16983 10.9012C8.51168 10.171 7.34929 10.0703 6.57355 10.6763Z" fill="#0A0A0A"/>
</svg>
