<svg width="32" height="32" viewBox="0 0 32 32" fill="none" xmlns="http://www.w3.org/2000/svg">
<path d="M21.0561 24.4807C21.0561 24.4167 21.0561 24.3527 21.0561 24.2887C21.0561 22.2727 21.0561 20.2567 21.0561 18.2407C21.0561 17.7607 20.9601 17.3447 20.7361 16.8967C20.6401 16.7047 20.5121 16.5127 20.3521 16.3527C20.0641 16.0647 19.7441 15.9047 19.3281 15.8407C19.1041 15.8087 18.8801 15.8087 18.6561 15.8727C18.2721 15.9687 17.9521 16.1607 17.6961 16.4487C17.4401 16.7367 17.2801 17.0567 17.1841 17.4407C17.1201 17.6327 17.0881 17.8247 17.0881 18.0167C17.0881 20.0967 17.0881 22.1447 17.0881 24.2247C17.0881 24.2887 17.0881 24.3527 17.0561 24.4487C17.0241 24.4487 16.9921 24.4487 16.9601 24.4487C16.2241 24.4807 13.7281 24.4487 13.5361 24.4167C13.5361 24.3847 13.5361 24.3527 13.5361 24.3207C13.5361 24.2887 13.5361 24.2247 13.5361 24.1927C13.5361 20.6087 13.5361 17.0247 13.5361 13.4407C13.5361 13.3767 13.5361 13.2807 13.5361 13.2167C13.6001 13.1847 13.6641 13.1847 13.7281 13.1847C14.2081 13.1847 14.7201 13.1847 15.2001 13.1847C15.7441 13.1847 16.3201 13.1847 16.8641 13.1847C16.9281 13.1847 16.9921 13.1847 17.0561 13.1847C17.1201 13.2167 17.0881 13.2807 17.0881 13.3127C17.0881 13.6007 17.0881 13.9207 17.0881 14.2087C17.0881 14.2727 17.0881 14.3367 17.0881 14.4007C17.1201 14.3687 17.1521 14.3687 17.1521 14.3367C17.6961 13.6007 18.4321 13.1527 19.3281 12.9287C19.9041 12.7687 20.5121 12.7047 21.1201 12.7687C21.8881 12.8327 22.5601 13.0887 23.1361 13.6007C23.4881 13.9207 23.7441 14.3047 23.9361 14.7207C24.1921 15.2327 24.3521 15.7447 24.4481 16.3207C24.5441 16.8327 24.5761 17.3447 24.5761 17.8887C24.5761 20.0327 24.5761 22.1767 24.5761 24.2887C24.5761 24.3527 24.5761 24.4167 24.5761 24.4487C24.5441 24.4807 24.5441 24.4807 24.5441 24.4807C24.5441 24.4807 24.5441 24.4807 24.5121 24.4807C24.4481 24.4807 24.4161 24.4807 24.3521 24.4807C23.2641 24.4807 22.1441 24.4807 21.0561 24.4807ZM21.0561 24.4807C21.1201 24.5127 21.0881 24.4807 21.0561 24.4807Z" stroke="#0A0A0A" stroke-width="1.3" stroke-miterlimit="10"/>
<path d="M7.71191 24.4488C7.71191 24.4168 7.71191 24.4168 7.71191 24.3848C7.71191 20.6728 7.71191 16.9608 7.71191 13.2808V13.2488C7.71191 13.2488 7.71191 13.2488 7.74391 13.2168C7.74391 13.2168 7.74391 13.2168 7.77591 13.2168C7.80791 13.2168 7.87191 13.2168 7.90391 13.2168C9.02391 13.2168 10.1119 13.2168 11.2319 13.2168H11.2639C11.2639 13.2488 11.2639 13.2808 11.2639 13.3128C11.2639 13.3448 11.2639 13.4088 11.2639 13.4408C11.2639 17.0248 11.2639 20.6088 11.2639 24.1928C11.2639 24.2568 11.2639 24.3528 11.2639 24.4168C11.2319 24.4168 11.1999 24.4168 11.1679 24.4488C11.1359 24.4488 11.0719 24.4488 11.0399 24.4488C10.0159 24.4488 8.95991 24.4488 7.93591 24.4488C7.83991 24.4488 7.77591 24.4488 7.71191 24.4488Z" stroke="#0A0A0A" stroke-width="1.3" stroke-miterlimit="10"/>
<path d="M9.47209 7.48828C10.5601 7.48828 11.5521 8.38428 11.5521 9.56828C11.5521 10.7523 10.5601 11.6483 9.47209 11.6163C8.41609 11.6163 7.39209 10.7523 7.39209 9.53628C7.39209 8.35228 8.41609 7.48828 9.47209 7.48828Z" stroke="#0A0A0A" stroke-width="1.3" stroke-miterlimit="10"/>
<path d="M16.0002 31.0082C24.2889 31.0082 31.0082 24.2889 31.0082 16.0002C31.0082 7.7115 24.2889 0.992188 16.0002 0.992188C7.7115 0.992188 0.992188 7.7115 0.992188 16.0002C0.992188 24.2889 7.7115 31.0082 16.0002 31.0082Z" stroke="#0A0A0A" stroke-width="1.3" stroke-miterlimit="10"/>
</svg>
