<svg width="32" height="32" viewBox="0 0 32 32" fill="none" xmlns="http://www.w3.org/2000/svg">
<path fill-rule="evenodd" clip-rule="evenodd" d="M7.23214 12.7358C6.49614 12.8958 5.76014 12.4478 5.60014 11.6798C5.44014 10.9438 5.88814 10.2078 6.65614 10.0478C10.1761 9.24776 13.6001 8.99176 16.9281 9.31176C20.2881 9.63176 23.6161 10.5598 26.9121 12.1598C27.5841 12.4798 27.8721 13.3118 27.5521 13.9838C27.2321 14.6558 26.4001 14.9438 25.7281 14.6238C22.6881 13.1518 19.7121 12.3198 16.6721 12.0318C13.6321 11.7438 10.4961 11.9998 7.23214 12.7358ZM7.77614 17.5038C10.6241 16.7998 13.3121 16.5438 16.0001 16.8318C18.6561 17.1198 21.2481 17.9518 23.9041 19.3918C24.4161 19.6798 25.0881 19.4878 25.3761 18.9758C25.6641 18.4638 25.4721 17.7918 24.9601 17.5038C22.0481 15.9038 19.1681 15.0078 16.2241 14.6878C13.3121 14.3678 10.3361 14.6558 7.26414 15.4238C6.68814 15.5838 6.33614 16.1598 6.46414 16.7358C6.59214 17.2798 7.20014 17.6318 7.77614 17.5038ZM8.00014 22.0798C7.52014 22.1758 7.00814 21.8558 6.91214 21.3438C6.81614 20.8638 7.13614 20.3518 7.64814 20.2558C10.6241 19.6798 13.3121 19.4558 15.8401 19.7438C18.4001 20.0638 20.7681 20.8638 23.0721 22.3678C23.4881 22.6558 23.6161 23.1998 23.3281 23.6158C23.0401 24.0318 22.4961 24.1598 22.0801 23.8718C20.0321 22.5278 17.9201 21.7918 15.6161 21.5358C13.3121 21.3438 10.7841 21.5358 8.00014 22.0798Z" stroke="#0A0A0A" stroke-width="1.3" stroke-miterlimit="10"/>
<path d="M16.0002 31.0082C24.2889 31.0082 31.0082 24.2889 31.0082 16.0002C31.0082 7.7115 24.2889 0.992188 16.0002 0.992188C7.7115 0.992188 0.992188 7.7115 0.992188 16.0002C0.992188 24.2889 7.7115 31.0082 16.0002 31.0082Z" stroke="#0A0A0A" stroke-width="1.3" stroke-miterlimit="10"/>
</svg>
