<svg width="32" height="32" viewBox="0 0 32 32" fill="none" xmlns="http://www.w3.org/2000/svg">
<path d="M16.0002 31.0082C24.2889 31.0082 31.0082 24.2889 31.0082 16.0002C31.0082 7.7115 24.2889 0.992188 16.0002 0.992188C7.7115 0.992188 0.992188 7.7115 0.992188 16.0002C0.992188 24.2889 7.7115 31.0082 16.0002 31.0082Z" stroke="#0A0A0A" stroke-width="1.3" stroke-miterlimit="10"/>
<path d="M17.44 12.1604V10.6244C17.44 9.88839 17.952 9.69639 18.304 9.69639C18.656 9.69639 20.448 9.69639 20.448 9.69639V6.40039H17.472C14.176 6.40039 13.44 8.86439 13.44 10.4324V12.1604H11.52V14.4644V16.0004H13.44C13.44 20.3524 13.44 25.6004 13.44 25.6004H17.28C17.28 25.6004 17.28 20.2884 17.28 16.0004H20.128L20.256 14.4964L20.48 12.1604H17.44Z" stroke="#0A0A0A" stroke-width="1.3" stroke-miterlimit="10"/>
</svg>
