<svg width="32" height="32" viewBox="0 0 32 32" fill="none" xmlns="http://www.w3.org/2000/svg">
<path d="M16.0002 31.0082C24.2889 31.0082 31.0082 24.2889 31.0082 16.0002C31.0082 7.7115 24.2889 0.992188 16.0002 0.992188C7.7115 0.992188 0.992188 7.7115 0.992188 16.0002C0.992188 24.2889 7.7115 31.0082 16.0002 31.0082Z" stroke="#0A0A0A" stroke-width="1.3" stroke-miterlimit="10"/>
<path d="M26.2082 10.8809C25.9522 9.95292 25.2482 9.24892 24.3202 8.99292C22.6562 8.54492 16.0002 8.54492 16.0002 8.54492C16.0002 8.54492 9.34424 8.54492 7.68024 8.99292C6.75224 9.24892 6.04824 9.95292 5.79224 10.8809C5.34424 12.5449 5.34424 16.0009 5.34424 16.0009C5.34424 16.0009 5.34424 19.4569 5.79224 21.1209C6.04824 22.0489 6.75224 22.7529 7.68024 23.0089C9.34424 23.4569 16.0002 23.4569 16.0002 23.4569C16.0002 23.4569 22.6562 23.4569 24.3202 23.0089C25.2482 22.7529 25.9522 22.0489 26.2082 21.1209C26.6562 19.4569 26.6562 16.0009 26.6562 16.0009C26.6562 16.0009 26.6562 12.5449 26.2082 10.8809Z" stroke="#0A0A0A" stroke-width="1.3" stroke-miterlimit="10"/>
<path d="M13.8564 19.2008L19.4244 16.0008L13.8564 12.8008V19.2008Z" stroke="#0A0A0A" stroke-width="1.3" stroke-miterlimit="10" stroke-linecap="round" stroke-linejoin="round"/>
</svg>
