<?xml version="1.0" encoding="utf-8"?>
<svg version="1.1" id="_1" xmlns="http://www.w3.org/2000/svg" xmlns:xlink="http://www.w3.org/1999/xlink" x="0px" y="0px"
	 viewBox="0 -0.25 32 32.5" width="32" height="32" style="enable-background:new 0 0 32 32;" xml:space="preserve">
<g>
	<g id="icons">
		<g id="instagram">
			<g>
				<path d="M19.7,24.8h-7.4c-2.8,0-5.1-2.3-5.1-5.1v-7.4c0-2.8,2.3-5.1,5.1-5.1h7.4c2.8,0,5.1,2.3,5.1,5.1v7.4
					C24.8,22.5,22.5,24.8,19.7,24.8z M12.3,7.6c-2.6,0-4.7,2.1-4.7,4.7v7.4c0,2.6,2.1,4.7,4.7,4.7h7.4c2.6,0,4.7-2.1,4.7-4.7v-7.4
					c0-2.6-2.1-4.7-4.7-4.7H12.3z" stroke="#0A0A0A" stroke-width="1" stroke-miterlimit="10"/>
			</g>
			<g>
				<path d="M16,20.6c-2.6,0-4.6-2.1-4.6-4.6s2.1-4.6,4.6-4.6s4.6,2.1,4.6,4.6S18.5,20.6,16,20.6z M16,11.8c-2.3,0-4.2,1.9-4.2,4.2
					s1.9,4.2,4.2,4.2s4.2-1.9,4.2-4.2S18.3,11.8,16,11.8z" stroke="#0A0A0A" stroke-width="1" stroke-miterlimit="10"/>
			</g>
			<g>
				<path d="M20.6,12.6c-0.7,0-1.3-0.6-1.3-1.3c0-0.7,0.6-1.3,1.3-1.3c0.3,0,0.6,0.1,0.9,0.3c0.3,0.2,0.4,0.6,0.4,0.9
					C21.9,12.1,21.3,12.6,20.6,12.6z M20.7,10.5C20.6,10.5,20.6,10.5,20.7,10.5c-0.5,0-0.9,0.4-0.9,0.8c0,0.5,0.4,0.8,0.8,0.8
					s0.8-0.4,0.8-0.8c0-0.2-0.1-0.5-0.3-0.6C21,10.6,20.8,10.5,20.7,10.5z" stroke="#0A0A0A" stroke-width="1" stroke-miterlimit="10"/>
			</g>
		</g>
	</g>
	<g>
		<path d="M16,31.7c-8.6,0-15.7-7-15.7-15.7c0-8.6,7-15.7,15.7-15.7c8.6,0,15.7,7,15.7,15.7C31.7,24.6,24.6,31.7,16,31.7z M16,0.8
			C7.6,0.8,0.8,7.6,0.8,16c0,8.4,6.8,15.2,15.2,15.2c8.4,0,15.2-6.8,15.2-15.2C31.2,7.6,24.4,0.8,16,0.8z" stroke="#0A0A0A" stroke-width="1" stroke-miterlimit="10"/>
	</g>
</g>
</svg>