<svg version="1.1" id="Ebene_1" xmlns="http://www.w3.org/2000/svg" xmlns:xlink="http://www.w3.org/1999/xlink" x="0px" y="0px" style="enable-background:new 0 0 1920 1080;" xml:space="preserve" viewBox="243.78 203.87 1432.22 690.47">
<style type="text/css">
	.st0{fill: #7BC0A8;}
	.st1{fill: #FFDB40;}
	.st2{fill: #010000;}
</style>
<g>
	<polygon class="st0" points="456.4,308.6 441.3,791.8 991.8,630.1 947.1,308.6  "/>
	<polygon class="st1" points="413.6,286.9 415.1,639.8 1004.2,894.3 899.7,203.9  "/>
	<path class="st2" d="M264.8,584.7c-13.5-13.8-21-31.9-21-50.8c0-18.9,7.5-37,21-50.8c13.5-13.5,31.6-20.7,50.8-20.7   c12.6,0,24,4.5,34,13.5l1.5,1.2v-12h36.4v137.7h-36.4v-10.8l-1.5,1.5c-10.8,10.5-23.1,12-34,12   C296.7,605.4,278.7,598.2,264.8,584.7z M280.2,533.9c0,19.8,16.2,36.4,35.5,36.4c19.2,0,35.5-16.5,35.5-36.4   c0-19.5-16.2-36.4-35.5-36.4C296.4,497.5,280.2,514.3,280.2,533.9z"/>
	<path class="st2" d="M643.3,602.7V459.6L587.4,536l-55.6-76.3v143.1h-40v-214h37.6l58,79.7l58-79.7h37.9v214H643.3z"/>
	<path class="st2" d="M806.1,602.1c-22.2-4.5-43.9-15.3-62.8-31.9l-5.7-5.1l26.5-30.1l5.7,5.1c13.8,12,29.2,20.1,44.2,23.1h0.3   c4.5,0.9,9,1.5,13.5,1.5c7.5,0,14.4-1.5,20.1-4.2c7.2-3,15.6-9.6,15.6-21.9c0-6.6-3.3-11.7-10.2-15.9c-8.4-5.1-19.8-7.8-28-9.3   c-3.6-0.6-34.3-6.9-48.4-14.7c-9.3-5.7-16.5-12.9-21.6-21.3c-5.1-8.7-7.5-18.3-7.5-28.9c0-11.4,3.6-22.8,10.5-33.4   c6.6-8.7,15.6-15.9,26.4-21c10.8-5.1,22.8-7.8,35.8-7.8c5.1,0,10.5,0.6,15.9,1.2c19.8,3.6,39.4,12.6,56.5,27.1l5.7,4.8l-25.5,31   l-5.7-4.8c-19.5-15.9-36.4-19.5-47.2-19.5c-6.9,0-13.2,1.5-18.6,3.9c-8.4,3.9-13.8,11.1-13.8,18.3c0,6.6,2.4,10.8,8.1,14.7   c5.7,3.9,14.4,6.9,28.3,9.9c1.8,0.3,4.2,0.9,6.6,1.5c12.6,2.4,29.5,6,41.2,12.9c10.2,5.4,18,12.9,23.4,21.6   c5.4,8.7,8.1,18.9,8.1,29.8c0,13.5-3.6,25.5-10.8,35.8c-6.3,8.7-15.6,16.2-28,22.2c-10.5,5.4-22.2,7.8-37,7.8   C820.9,604.5,813.6,603.6,806.1,602.1z"/>
	<path class="st2" d="M1068.5,602.7c-13.2,0-25.5-5.1-34.6-14.1c-9.3-9.3-14.1-21.3-14.1-34.6v-57.1h-19.2v-31h19.2v-54.1h35.8v54.1   h40v31h-40v56.5c0,7.5,6.6,14.4,13.2,14.4h26.2l9.6,34.9H1068.5z"/>
	<path class="st2" d="M1201.7,584.7c-13.5-13.8-21-31.9-21-50.8c0-18.9,7.5-37,21-50.8c13.5-13.5,31.6-20.7,50.8-20.7   c12.6,0,24,4.5,34,13.5l1.5,1.2v-12h36.4v137.7h-36.4v-10.8l-1.5,1.5c-10.8,10.5-23.1,12-34,12   C1233.5,605.4,1215.5,598.2,1201.7,584.7z M1217,533.9c0,19.8,16.2,36.4,35.5,36.4s35.5-16.5,35.5-36.4c0-19.5-16.2-36.4-35.5-36.4   S1217,514.3,1217,533.9z"/>
	<path class="st2" d="M1418.1,602.7V465h37.9v11.1c10.8-10.8,27.1-14.4,37.9-14.4h9l-9,37.6h-5.7c-17.7,0-32.2,13.8-32.2,30.4v73   H1418.1z"/>
	<path class="st2" d="M1639.9,602.7c-13.2,0-25.5-5.1-34.6-14.1c-9.3-9.3-14.1-21.3-14.1-34.6v-57.1h-19.2v-31h19.2v-54.1h35.8v54.1   h40v31h-40v56.5c0,7.5,6.6,14.4,13.2,14.4h26.2l9.6,34.9H1639.9z"/>
</g>
</svg>